{
  "accessors": [
    {
      "bufferView": 2,
      "componentType": 5126,
      "count": 594,
      "max": [
        1.7330560684204102,
        1.5782228708267212,
        3.0265579223632813
      ],
      "min": [
        -1.7330561876296997,
        -1.4188610315322876,
        -1.5256657600402832
      ],
      "type": "VEC3"
    },
    {
      "bufferView": 2,
      "byteOffset": 7128,
      "componentType": 5126,
      "count": 594,
      "max": [
        0.9946014881134033,
        0.9999896883964539,
        0.9996565580368042
      ],
      "min": [
        -0.994606077671051,
        -0.9995290637016296,
        -0.999951958656311
      ],
      "type": "VEC3"
    },
    {
      "bufferView": 3,
      "componentType": 5126,
      "count": 594,
      "max": [
        0.9751120805740356,
        0.9925439953804016,
        0.9978241920471191,
        1.0
      ],
      "min": [
        -0.9958493113517761,
        -0.9926295280456543,
        -0.9998295903205872,
        1.0
      ],
      "type": "VEC4"
    },
    {
      "bufferView": 1,
      "componentType": 5126,
      "count": 594,
      "max": [
        0.9989984035491943,
        0.9510325193405151
      ],
      "min": [
        0.0008406676352024078,
        0.013005509041249752
      ],
      "type": "VEC2"
    },
    {
      "bufferView": 1,
      "byteOffset": 4752,
      "componentType": 5126,
      "count": 594,
      "max": [
        0.9989984035491943,
        0.9510325193405151
      ],
      "min": [
        0.0008406676352024078,
        0.013005509041249752
      ],
      "type": "VEC2"
    },
    {
      "bufferView": 0,
      "componentType": 5125,
      "count": 2682,
      "type": "SCALAR"
    },
    {
      "bufferView": 2,
      "byteOffset": 14256,
      "componentType": 5126,
      "count": 1706,
      "max": [
        0.2518884837627411,
        0.2518883943557739,
        0.7605853080749512
      ],
      "min": [
        -0.2518884241580963,
        -0.2518884539604187,
        -0.01670628786087036
      ],
      "type": "VEC3"
    },
    {
      "bufferView": 2,
      "byteOffset": 34728,
      "componentType": 5126,
      "count": 1706,
      "max": [
        1.0,
        1.0,
        1.0
      ],
      "min": [
        -1.0,
        -1.0,
        -1.0
      ],
      "type": "VEC3"
    },
    {
      "bufferView": 3,
      "byteOffset": 9504,
      "componentType": 5126,
      "count": 1706,
      "max": [
        1.0,
        1.0,
        1.0,
        1.0
      ],
      "min": [
        -1.0,
        -1.0,
        -1.0,
        -1.0
      ],
      "type": "VEC4"
    },
    {
      "bufferView": 1,
      "byteOffset": 9504,
      "componentType": 5126,
      "count": 1706,
      "max": [
        0.9970870018005371,
        0.9953374862670898
      ],
      "min": [
        0.0023520290851593018,
        0.001527297543361783
      ],
      "type": "VEC2"
    },
    {
      "bufferView": 1,
      "byteOffset": 23152,
      "componentType": 5126,
      "count": 1706,
      "max": [
        0.9970870018005371,
        0.9953374862670898
      ],
      "min": [
        0.0023520290851593018,
        0.001527297543361783
      ],
      "type": "VEC2"
    },
    {
      "bufferView": 0,
      "byteOffset": 10728,
      "componentType": 5125,
      "count": 5532,
      "type": "SCALAR"
    },
    {
      "bufferView": 2,
      "byteOffset": 55200,
      "componentType": 5126,
      "count": 2880,
      "max": [
        0.3288576304912567,
        0.32885751128196716,
        0.7651635408401489
      ],
      "min": [
        -0.32885757088661194,
        -0.3288576006889343,
        -0.012128055095672607
      ],
      "type": "VEC3"
    },
    {
      "bufferView": 2,
      "byteOffset": 89760,
      "componentType": 5126,
      "count": 2880,
      "max": [
        0.9999731183052063,
        0.9999731183052063,
        1.0
      ],
      "min": [
        -0.9999731183052063,
        -0.9999935030937195,
        -1.0
      ],
      "type": "VEC3"
    },
    {
      "bufferView": 3,
      "byteOffset": 36800,
      "componentType": 5126,
      "count": 2880,
      "max": [
        1.0,
        1.0,
        0.9996297359466553,
        1.0
      ],
      "min": [
        -1.0,
        -1.0,
        -0.9999935030937195,
        -1.0
      ],
      "type": "VEC4"
    },
    {
      "bufferView": 1,
      "byteOffset": 36800,
      "componentType": 5126,
      "count": 2880,
      "max": [
        0.9970870018005371,
        0.9953374862670898
      ],
      "min": [
        0.0023520290851593018,
        0.001527297543361783
      ],
      "type": "VEC2"
    },
    {
      "bufferView": 1,
      "byteOffset": 59840,
      "componentType": 5126,
      "count": 2880,
      "max": [
        0.9970870018005371,
        0.9953374862670898
      ],
      "min": [
        0.0023520290851593018,
        0.001527297543361783
      ],
      "type": "VEC2"
    },
    {
      "bufferView": 0,
      "byteOffset": 32856,
      "componentType": 5125,
      "count": 9204,
      "type": "SCALAR"
    },
    {
      "bufferView": 2,
      "byteOffset": 124320,
      "componentType": 5126,
      "count": 2350,
      "max": [
        0.3293049931526184,
        0.32930445671081543,
        0.8880337476730347
      ],
      "min": [
        -0.3293049931526184,
        -0.3293054699897766,
        -0.01710459589958191
      ],
      "type": "VEC3"
    },
    {
      "bufferView": 2,
      "byteOffset": 152520,
      "componentType": 5126,
      "count": 2350,
      "max": [
        0.9999723434448242,
        0.9999722838401794,
        1.0
      ],
      "min": [
        -0.9999722838401794,
        -0.9999722838401794,
        -1.0
      ],
      "type": "VEC3"
    },
    {
      "bufferView": 3,
      "byteOffset": 82880,
      "componentType": 5126,
      "count": 2350,
      "max": [
        1.0,
        1.0,
        0.9999722838401794,
        1.0
      ],
      "min": [
        -1.0,
        -1.0,
        -1.0,
        -1.0
      ],
      "type": "VEC4"
    },
    {
      "bufferView": 1,
      "byteOffset": 82880,
      "componentType": 5126,
      "count": 2350,
      "max": [
        0.9970870018005371,
        0.9953374862670898
      ],
      "min": [
        0.0023520290851593018,
        0.001527297543361783
      ],
      "type": "VEC2"
    },
    {
      "bufferView": 1,
      "byteOffset": 101680,
      "componentType": 5126,
      "count": 2350,
      "max": [
        0.9970870018005371,
        0.9953374862670898
      ],
      "min": [
        0.0023520290851593018,
        0.001527297543361783
      ],
      "type": "VEC2"
    },
    {
      "bufferView": 0,
      "byteOffset": 69672,
      "componentType": 5125,
      "count": 7416,
      "type": "SCALAR"
    },
    {
      "bufferView": 2,
      "byteOffset": 180720,
      "componentType": 5126,
      "count": 2519,
      "max": [
        0.23579463362693787,
        0.23786908388137817,
        0.04725771024823189
      ],
      "min": [
        -0.23579463362693787,
        -0.23786908388137817,
        -0.8226431012153625
      ],
      "type": "VEC3"
    },
    {
      "bufferView": 2,
      "byteOffset": 210948,
      "componentType": 5126,
      "count": 2519,
      "max": [
        1.0,
        1.0,
        1.0
      ],
      "min": [
        -1.0,
        -1.0,
        -1.0
      ],
      "type": "VEC3"
    },
    {
      "bufferView": 3,
      "byteOffset": 120480,
      "componentType": 5126,
      "count": 2519,
      "max": [
        1.0,
        1.0,
        1.0,
        1.0
      ],
      "min": [
        -1.0,
        -1.0,
        -1.0,
        -1.0
      ],
      "type": "VEC4"
    },
    {
      "bufferView": 1,
      "byteOffset": 120480,
      "componentType": 5126,
      "count": 2519,
      "max": [
        0.996631383895874,
        0.984169602394104
      ],
      "min": [
        0.002497067442163825,
        0.002497202018275857
      ],
      "type": "VEC2"
    },
    {
      "bufferView": 1,
      "byteOffset": 140632,
      "componentType": 5126,
      "count": 2519,
      "max": [
        0.996631383895874,
        0.984169602394104
      ],
      "min": [
        0.002497067442163825,
        0.002497202018275857
      ],
      "type": "VEC2"
    },
    {
      "bufferView": 0,
      "byteOffset": 99336,
      "componentType": 5125,
      "count": 8478,
      "type": "SCALAR"
    }
  ],
  "asset": {
    "extras": {
      "author": "AtTheSpeedOf (https://sketchfab.com/AtTheSpeedOf)",
      "license": "CC-BY-4.0 (http://creativecommons.org/licenses/by/4.0/)",
      "source": "https://sketchfab.com/3d-models/some-furniture-403f2737ce9e466092242169a813676d",
      "title": "some furniture"
    },
    "generator": "Sketchfab-12.66.0",
    "version": "2.0"
  },
  "bufferViews": [
    {
      "buffer": 0,
      "byteLength": 133248,
      "name": "floatBufferViews",
      "target": 34963
    },
    {
      "buffer": 0,
      "byteLength": 160784,
      "byteOffset": 133248,
      "byteStride": 8,
      "name": "floatBufferViews",
      "target": 34962
    },
    {
      "buffer": 0,
      "byteLength": 241176,
      "byteOffset": 294032,
      "byteStride": 12,
      "name": "floatBufferViews",
      "target": 34962
    },
    {
      "buffer": 0,
      "byteLength": 160784,
      "byteOffset": 535208,
      "byteStride": 16,
      "name": "floatBufferViews",
      "target": 34962
    }
  ],
  "buffers": [
    {
      "byteLength": 695992,
      "uri": "scene.bin"
    }
  ],
  "images": [
    {
      "uri": "textures/chair1_baseColor.png"
    },
    {
      "uri": "textures/chair1_metallicRoughness.png"
    },
    {
      "uri": "textures/chair1_normal.png"
    },
    {
      "uri": "textures/endtable1_baseColor.png"
    },
    {
      "uri": "textures/endtable1_metallicRoughness.png"
    },
    {
      "uri": "textures/endtable1_normal.png"
    },
    {
      "uri": "textures/lamp01_baseColor.png"
    },
    {
      "uri": "textures/lamp01_metallicRoughness.png"
    },
    {
      "uri": "textures/lamp01_normal.png"
    }
  ],
  "materials": [
    {
      "doubleSided": true,
      "name": "chair1",
      "normalTexture": {
        "index": 2
      },
      "pbrMetallicRoughness": {
        "baseColorTexture": {
          "index": 0
        },
        "metallicFactor": 0.0,
        "metallicRoughnessTexture": {
          "index": 1
        }
      }
    },
    {
      "doubleSided": true,
      "name": "endtable1",
      "normalTexture": {
        "index": 5
      },
      "pbrMetallicRoughness": {
        "baseColorTexture": {
          "index": 3
        },
        "metallicRoughnessTexture": {
          "index": 4
        }
      }
    },
    {
      "doubleSided": true,
      "name": "lamp01",
      "normalTexture": {
        "index": 8
      },
      "pbrMetallicRoughness": {
        "baseColorTexture": {
          "index": 6
        },
        "metallicRoughnessTexture": {
          "index": 7
        }
      }
    }
  ],
  "meshes": [
    {
      "name": "chairlegs_low.001_chair1_0",
      "primitives": [
        {
          "attributes": {
            "NORMAL": 1,
            "POSITION": 0,
            "TANGENT": 2,
            "TEXCOORD_0": 3,
            "TEXCOORD_1": 4
          },
          "indices": 5,
          "material": 0,
          "mode": 4
        }
      ]
    },
    {
      "name": "endtable1 top _low_endtable1_0",
      "primitives": [
        {
          "attributes": {
            "NORMAL": 7,
            "POSITION": 6,
            "TANGENT": 8,
            "TEXCOORD_0": 9,
            "TEXCOORD_1": 10
          },
          "indices": 11,
          "material": 1,
          "mode": 4
        }
      ]
    },
    {
      "name": "endtable1 top _low.006_endtable1_0",
      "primitives": [
        {
          "attributes": {
            "NORMAL": 13,
            "POSITION": 12,
            "TANGENT": 14,
            "TEXCOORD_0": 15,
            "TEXCOORD_1": 16
          },
          "indices": 17,
          "material": 1,
          "mode": 4
        }
      ]
    },
    {
      "name": "endtable1 top _low.003_endtable1_0",
      "primitives": [
        {
          "attributes": {
            "NORMAL": 19,
            "POSITION": 18,
            "TANGENT": 20,
            "TEXCOORD_0": 21,
            "TEXCOORD_1": 22
          },
          "indices": 23,
          "material": 1,
          "mode": 4
        }
      ]
    },
    {
      "name": "lampscrew_low.001_lamp01_0",
      "primitives": [
        {
          "attributes": {
            "NORMAL": 25,
            "POSITION": 24,
            "TANGENT": 26,
            "TEXCOORD_0": 27,
            "TEXCOORD_1": 28
          },
          "indices": 29,
          "material": 2,
          "mode": 4
        }
      ]
    }
  ],
  "nodes": [
    {
      "children": [
        1
      ],
      "matrix": [
        1.0,
        0.0,
        0.0,
        0.0,
        0.0,
        2.220446049250313e-16,
        -1.0,
        0.0,
        0.0,
        1.0,
        2.220446049250313e-16,
        0.0,
        0.0,
        0.0,
        0.0,
        1.0
      ],
      "name": "Sketchfab_model"
    },
    {
      "children": [
        2
      ],
      "matrix": [
        0.009999999776482582,
        0.0,
        0.0,
        0.0,
        0.0,
        0.0,
        0.009999999776482582,
        0.0,
        0.0,
        -0.009999999776482582,
        0.0,
        0.0,
        0.0,
        0.0,
        0.0,
        1.0
      ],
      "name": "fef7283ba7ca4768a72636c8cf0a50b0.fbx"
    },
    {
      "children": [
        3,
        5,
        7,
        9,
        11
      ],
      "name": "RootNode"
    },
    {
      "children": [
        4
      ],
      "matrix": [
        17.76871690713507,
        -1.1485743777075203e-06,
        17.442665688972216,
        0.0,
        17.44266568897209,
        -2.2158802463078503e-06,
        -17.76871690713509,
        0.0,
        2.371938610729314e-06,
        24.89927482604968,
        -7.766953082669793e-07,
        0.0,
        192.90289306640625,
        36.057884216308594,
        402.7113952636719,
        1.0
      ],
      "name": "chairlegs_low.001"
    },
    {
      "mesh": 0,
      "name": "chairlegs_low.001_chair1_0"
    },
    {
      "children": [
        6
      ],
      "matrix": [
        100.0,
        0.0,
        0.0,
        0.0,
        0.0,
        -1.629206793918314e-05,
        -99.99999999999868,
        0.0,
        0.0,
        99.99999999999868,
        -1.629206793918314e-05,
        0.0,
        100.1440200805664,
        1.1337220668792725,
        379.4942321777344,
        1.0
      ],
      "name": "endtable1 top _low"
    },
    {
      "mesh": 1,
      "name": "endtable1 top _low_endtable1_0"
    },
    {
      "children": [
        8
      ],
      "matrix": [
        84.16470336914063,
        0.0,
        0.0,
        0.0,
        0.0,
        -1.3712170653712353e-05,
        -84.16470336913952,
        0.0,
        0.0,
        99.99999999999868,
        -1.629206793918314e-05,
        0.0,
        40.958030700683594,
        0.33455491065979004,
        379.4942321777344,
        1.0
      ],
      "name": "endtable1 top _low.006"
    },
    {
      "mesh": 2,
      "name": "endtable1 top _low.006_endtable1_0"
    },
    {
      "children": [
        10
      ],
      "matrix": [
        85.33098602294922,
        0.0,
        0.0,
        0.0,
        -0.0,
        -1.3902182216033757e-05,
        -85.3309860229481,
        0.0,
        0.0,
        95.76570892333858,
        -1.5602214360230898e-05,
        0.0,
        -18.718982696533203,
        -1.4632225036621094,
        379.4942321777344,
        1.0
      ],
      "name": "endtable1 top _low.003"
    },
    {
      "mesh": 3,
      "name": "endtable1 top _low.003_endtable1_0"
    },
    {
      "children": [
        12
      ],
      "matrix": [
        100.0,
        0.0,
        0.0,
        0.0,
        0.0,
        -1.629206793918314e-05,
        -99.99999999999868,
        0.0,
        0.0,
        99.99999999999868,
        -1.629206793918314e-05,
        0.0,
        39.62718963623047,
        158.43038940429688,
        384.0041809082031,
        1.0
      ],
      "name": "lampscrew_low.001"
    },
    {
      "mesh": 4,
      "name": "lampscrew_low.001_lamp01_0"
    }
  ],
  "samplers": [
    {
      "magFilter": 9729,
      "minFilter": 9987,
      "wrapS": 10497,
      "wrapT": 10497
    }
  ],
  "scene": 0,
  "scenes": [
    {
      "name": "Sketchfab_Scene",
      "nodes": [
        0
      ]
    }
  ],
  "textures": [
    {
      "sampler": 0,
      "source": 0
    },
    {
      "sampler": 0,
      "source": 1
    },
    {
      "sampler": 0,
      "source": 2
    },
    {
      "sampler": 0,
      "source": 3
    },
    {
      "sampler": 0,
      "source": 4
    },
    {
      "sampler": 0,
      "source": 5
    },
    {
      "sampler": 0,
      "source": 6
    },
    {
      "sampler": 0,
      "source": 7
    },
    {
      "sampler": 0,
      "source": 8
    }
  ]
}
